<svg width="100" height="100" viewBox="0 0 100 100" fill="none" xmlns="http://www.w3.org/2000/svg">
<path fill-rule="evenodd" clip-rule="evenodd" d="M-6.38962e-05 100.004H99.9999V0.00497437H-6.38962e-05V100.004ZM53.8483 28.2654C56.656 26.3572 60.0455 25.2409 63.6935 25.2409C73.3752 25.2409 81.2355 33.1012 81.2355 42.7826C81.2355 52.4641 73.3752 60.3244 63.6935 60.3244C60.0455 60.3244 56.656 59.2091 53.8483 57.2998V80.1318H46.1517V57.2998C46.1517 57.2998 30.4575 76 24.5 76C27.5 66.8244 26.4609 60.3244 14.5 57.2998L27 55.5L26.4609 42.7826C26.4609 48.8568 45.904 45 36.3063 52.6283C41.021 52.6283 46.1517 48.7537 46.1517 42.7826V25.2409H53.8483V28.2654ZM53.8485 42.8467L53.8483 42.7826C53.8483 37.3492 58.2598 32.937 63.6935 32.937C69.1274 32.937 73.5389 37.3492 73.5389 42.7826C73.5389 48.2161 69.1274 52.6283 63.6935 52.6283C58.281 52.6283 53.8827 48.2511 53.8485 42.8467Z" fill="white"/>
</svg>
